<?xml version="1.0" encoding="UTF-8"?>
<svg id="_16" data-name="16" xmlns="http://www.w3.org/2000/svg" viewBox="0 0 24 24">
  <defs>
    <style>
      .cls-1 {
        fill: currentColor;
      }
    </style>
  </defs>
  <path class="cls-1" d="M13.94,12.76c-.65,0-1.03.36-1.03.87s.39.9,1.04.9,1.03-.37,1.03-.89-.4-.88-1.04-.88Z"/>
  <path class="cls-1" d="M2.51,2.73v18.94h18.98V2.73H2.51ZM3.72,20.37v-4.71l4.7,4.71H3.72ZM10.33,15.55h-1.3v-4.68l-1.04.26-.27-1.08,1.71-.51h.9v6.01ZM14,15.66c-.77,0-1.3-.23-1.72-.64-.43-.44-.71-1.08-.71-2.27,0-1.85.84-3.27,2.62-3.27.81,0,1.34.24,1.87.66l-.69,1.01c-.39-.3-.71-.48-1.22-.48-.74,0-1.12.6-1.2,1.39.3-.2.64-.39,1.23-.39,1.19,0,2.1.66,2.1,1.91s-.98,2.08-2.28,2.08ZM20.18,8.75l-4.7-4.7h4.7v4.7Z"/>
</svg>
