<?xml version="1.0" encoding="UTF-8"?>
<svg id="_32" xmlns="http://www.w3.org/2000/svg" version="1.1" viewBox="0 0 24 24">
  <!-- Generator: Adobe Illustrator 30.0.0, SVG Export Plug-In . SVG Version: 2.1.1 Build 123)  -->
  <path d="M2.51,2.6v18.94h18.98V2.6H2.51ZM3.84,3.81h4.7l-4.7,4.7s0-4.7,0-4.7ZM3.77,20.23v-4.7l4.7,4.7H3.77ZM9.34,15.17c-1.07,0-1.81-.43-2.33-1.03l.9-.87c.42.46.83.72,1.44.72.49,0,.85-.28.85-.73,0-.5-.42-.77-1.17-.77h-.55l-.2-.84,1.43-1.43h-2.36v-1.13h4.05v.99l-1.51,1.44c.82.14,1.59.57,1.59,1.69s-.82,1.96-2.14,1.96ZM12.41,14.02l1.98-1.62c.73-.62,1.02-.94,1.02-1.44s-.32-.77-.8-.77c-.45,0-.77.25-1.21.8l-.93-.74c.6-.81,1.17-1.24,2.24-1.24,1.26,0,2.05.73,2.05,1.85,0,1-.52,1.5-1.58,2.32l-.96.75h2.6v1.14h-4.41s0-1.05,0-1.05ZM20.16,20.27h-4.7l4.7-4.7v4.7ZM20.23,8.62l-4.7-4.71h4.7v4.71Z"/>
</svg>