<?xml version="1.0" encoding="UTF-8"?>
<svg id="_8" data-name="8" xmlns="http://www.w3.org/2000/svg" viewBox="0 0 24 24">
  <defs>
    <style>
      .cls-1 {
        fill: currentColor;
      }
    </style>
  </defs>
  <path class="cls-1" d="M11.15,11.38c0-.37.31-.69.85-.69s.85.33.85.7c0,.43-.33.74-.85.74s-.85-.32-.85-.75Z"/>
  <path class="cls-1" d="M13.03,13.91c0,.43-.38.75-1.03.75s-1.03-.32-1.03-.75c0-.47.43-.74,1.03-.74s1.03.27,1.03.74Z"/>
  <path class="cls-1" d="M2.51,2.73v18.94h18.98V2.73H2.51ZM12,15.74c-1.32,0-2.3-.68-2.3-1.73,0-.73.33-1.16.96-1.45-.46-.28-.76-.66-.76-1.31,0-.92.84-1.65,2.1-1.65s2.1.73,2.1,1.65c0,.65-.3,1.03-.76,1.31.6.32.96.7.96,1.42,0,1.12-.98,1.76-2.3,1.76Z"/>
</svg>
